# xmcd
# 
# Track frame offsets:
#     150
#     18747
#     33385
#     53592
#     77747
#     97302
#     120375
#     137582
#     157415
#     179617
#     202722
# 
# Disc length: 2920
# 
# Revision: 3
# Processed by: cddbd v1.5.2PL0 Copyright (c) Steve Scherf et al.
# Submitted via: fre:ac v1.0.31
# 
DISCID=930b660b
DTITLE=Do As Infinity - Do As Infinity_GATES OF HEAVEN
DYEAR=2003
DGENRE=Pop
TTITLE0=Gates of heaven
TTITLE1=本日ハ晴天ナリ
TTITLE2=柊
TTITLE3=アザヤカナハナ
TTITLE4=魔法の言葉 ~Would you marry me?~
TTITLE5=ブランコ
TTITLE6=D/N/A
TTITLE7=Weeds
TTITLE8=Field of dreams
TTITLE9=科学の夜
TTITLE10=Thanksgiving Day
EXTD=YEAR: 2003 ID3G: 13
EXTT0=
EXTT1=
EXTT2=
EXTT3=
EXTT4=
EXTT5=
EXTT6=
EXTT7=
EXTT8=
EXTT9=
EXTT10=
PLAYORDER=
